<svg width="27" height="26" viewBox="0 0 27 26" fill="none" xmlns="http://www.w3.org/2000/svg">
<path fill-rule="evenodd" clip-rule="evenodd" d="M3.88462 3.27637C2.55521 3.27637 1.5 4.32289 1.5 5.58648V22.4471C1.5 23.7107 2.55521 24.7572 3.88462 24.7572H23.1154C24.4448 24.7572 25.5 23.7107 25.5 22.4471V5.58648C25.5 4.32289 24.4448 3.27637 23.1154 3.27637H3.88462ZM0.5 5.58648C0.5 3.7461 2.02776 2.27637 3.88462 2.27637H23.1154C24.9722 2.27637 26.5 3.7461 26.5 5.58648V22.4471C26.5 24.2875 24.9722 25.7572 23.1154 25.7572H3.88462C2.02776 25.7572 0.5 24.2875 0.5 22.4471V5.58648Z" fill="#3C596E"/>
<path d="M5.80769 1V3.28377V1ZM21.1923 1V3.28377V1ZM26 8.9932H1H26Z" fill="#507691"/>
<path fill-rule="evenodd" clip-rule="evenodd" d="M5.80769 0.5C6.08383 0.5 6.30769 0.723858 6.30769 1V3.28377C6.30769 3.55991 6.08383 3.78377 5.80769 3.78377C5.53155 3.78377 5.30769 3.55991 5.30769 3.28377V1C5.30769 0.723858 5.53155 0.5 5.80769 0.5ZM21.1923 0.5C21.4684 0.5 21.6923 0.723858 21.6923 1V3.28377C21.6923 3.55991 21.4684 3.78377 21.1923 3.78377C20.9162 3.78377 20.6923 3.55991 20.6923 3.28377V1C20.6923 0.723858 20.9162 0.5 21.1923 0.5ZM0.5 8.9932C0.5 8.71706 0.723858 8.4932 1 8.4932H26C26.2761 8.4932 26.5 8.71706 26.5 8.9932C26.5 9.26934 26.2761 9.4932 26 9.4932H1C0.723858 9.4932 0.5 9.26934 0.5 8.9932Z" fill="#3C596E"/>
</svg>
