<svg xmlns="http://www.w3.org/2000/svg" width="20" height="20" viewBox="0 0 32 32">
    <g fill="none" fill-rule="evenodd">
        <g fill="#507691" fill-rule="nonzero">
            <g>
                <path d="M22 2c.513 0 .936.386.993.883L23 3v2h4c1.598 0 2.904 1.249 2.995 2.824L30 8v18c0 1.657-1.343 3-3 3H5c-1.657 0-3-1.343-3-3V8c0-1.657 1.343-3 3-3h4V3c0-.552.448-1 1-1 .513 0 .936.386.993.883L11 3v2h10V3c0-.552.448-1 1-1zm6 12H4v12c0 .513.386.936.883.993L5 27h22c.552 0 1-.448 1-1V14zM9 7H5c-.552 0-1 .448-1 1v4h24V8c0-.513-.386-.936-.883-.993L27 7h-4v2c0 .552-.448 1-1 1-.513 0-.936-.386-.993-.883L21 9V7H11v2c0 .552-.448 1-1 1-.513 0-.936-.386-.993-.883L9 9V7z" transform="translate(-592 -1280) translate(592 1280)"/>
            </g>
        </g>
    </g>
</svg>
