<svg xmlns="http://www.w3.org/2000/svg" width="25" height="25" viewBox="0 0 32 32">
    <g fill="none" fill-rule="evenodd">
        <g fill="#7D9EB4" fill-rule="nonzero">
            <g>
                <path d="M19 1c1.657 0 3 1.343 3 3v2h6c.552 0 1 .448 1 1 0 .513-.386.936-.883.993L28 8h-1v19.7c0 1.752-1.338 3.197-3.039 3.295l-.183.005H8.222C6.435 31 5 29.515 5 27.7V8H4c-.552 0-1-.448-1-1 0-.513.386-.936.883-.993L4 6h6V4c0-1.598 1.249-2.904 2.824-2.995L13 1zm6 7H7v19.7c0 .68.488 1.228 1.099 1.293l.123.007h15.556c.667 0 1.222-.574 1.222-1.3V8zm-6 4c.513 0 .936.386.993.883L20 13v10c0 .552-.448 1-1 1-.513 0-.936-.386-.993-.883L18 23V13c0-.552.448-1 1-1zm-6 0c.513 0 .936.386.993.883L14 13v10c0 .552-.448 1-1 1-.513 0-.936-.386-.993-.883L12 23V13c0-.552.448-1 1-1zm6-9h-6c-.552 0-1 .448-1 1v2h8V4c0-.513-.386-.936-.883-.993L19 3z" transform="translate(-384 -1664) translate(384 1664)"/>
            </g>
        </g>
    </g>
</svg>
