<svg xmlns="http://www.w3.org/2000/svg" width="29.66" height="25" viewBox="0 0 32 32">
    <g fill="none" fill-rule="evenodd">
        <g fill="#7D9EB4" fill-rule="nonzero">
            <g>
                <path d="M24.447 2l.276.005c1.375.06 2.683.63 3.665 1.609C29.43 4.659 30.01 6.076 30 7.552c-.013 1.897-.316 3.2-1.293 4.155l-17 17c-.063.063-.131.115-.204.158l-.026.014c-.03.016-.06.03-.09.044l-.035.013c-.026.01-.053.019-.079.026-.048.014-.098.024-.149.03l.094-.016c-.023.005-.046.01-.07.013l-.024.003-8 1c-.647.081-1.197-.469-1.116-1.116l1-8c0-.008.002-.015.003-.022.004-.03.01-.058.016-.086l.01-.035c.006-.024.013-.047.021-.07l.024-.06.024-.052.03-.055c.015-.025.03-.05.048-.074.033-.046.069-.09.109-.13L20.285 3.302c.963-.985 2.266-1.288 4.162-1.301zM4.737 23.152l-.585 4.695 4.694-.587-4.108-4.108zM21 5.414L5.414 20.999l5.585 5.585 15.586-15.585L21 5.414zm3.46-1.415l-.272.005c-.636.018-1.154.08-1.569.2l5.177 5.177c.12-.413.182-.932.2-1.57L28 7.538c.006-.941-.364-1.846-1.026-2.51-.667-.664-1.572-1.034-2.514-1.03z" transform="translate(-1008 -1472) translate(1008 1472)"/>
            </g>
        </g>
    </g>
</svg>
